<?xml version="1.0" encoding="utf-8"?>
<!-- Generator: Adobe Illustrator 16.0.0, SVG Export Plug-In . SVG Version: 6.00 Build 0)  -->
<!DOCTYPE svg PUBLIC "-//W3C//DTD SVG 1.1//EN" "http://www.w3.org/Graphics/SVG/1.1/DTD/svg11.dtd">
<svg version="1.1" id="Layer_1" xmlns="http://www.w3.org/2000/svg" xmlns:xlink="http://www.w3.org/1999/xlink" x="0px" y="0px"
	 width="595.279px" height="841.891px" viewBox="0 0 595.279 841.891" enable-background="new 0 0 595.279 841.891"
	 xml:space="preserve">
<radialGradient id="SVGID_1_" cx="404.0403" cy="489.7537" r="53.3552" gradientTransform="matrix(1 0 0 -1 -95.5298 743.2495)" gradientUnits="userSpaceOnUse">
	<stop  offset="0" style="stop-color:#FFFFFF"/>
	<stop  offset="0.1061" style="stop-color:#FFFFFF;stop-opacity:0.8939"/>
	<stop  offset="1" style="stop-color:#FFFFFF;stop-opacity:0"/>
</radialGradient>
<path fill="url(#SVGID_1_)" d="M308.512,195.184c26.443,0,47.887,26.108,47.887,58.31c0,32.209-21.443,58.313-47.887,58.313
	c-26.448,0-47.89-26.104-47.89-58.313C260.622,221.293,282.064,195.184,308.512,195.184z"/>
<g>
	
		<linearGradient id="SVGID_2_" gradientUnits="userSpaceOnUse" x1="425.1243" y1="432.8679" x2="425.1243" y2="246.8331" gradientTransform="matrix(1 0 0 1 -95.5298 -242.291)">
		<stop  offset="0" style="stop-color:#000000"/>
		<stop  offset="0.4892" style="stop-color:#E6E7E8"/>
		<stop  offset="1" style="stop-color:#00AEEF"/>
	</linearGradient>
	<path fill="url(#SVGID_2_)" d="M330.039,187.425c-44.448,0-71.992-29.33-71.992-68.434c0-37.33,39.313-57.564,65.489-113.954
		c34.241,58.402,77.605,76.624,77.605,113.954C400.252,158.095,373.587,187.425,330.039,187.425z"/>
	
		<linearGradient id="SVGID_3_" gradientUnits="userSpaceOnUse" x1="501.6028" y1="580.9011" x2="534.9739" y2="580.9011" gradientTransform="matrix(1 0 0 -1 -95.5298 743.2495)">
		<stop  offset="0" style="stop-color:#F9CBDF"/>
		<stop  offset="1" style="stop-color:#EC008C"/>
	</linearGradient>
	<path fill="url(#SVGID_3_)" d="M433.643,174.964c-6.063,4.369-8.657-12.498-27.57,0.732c6.095-10.845,4.771-19.579,10.832-23.951
		c6.336-4.572,14.331-3.533,19.527,3.679C441.517,162.49,439.882,170.251,433.643,174.964z"/>
	
		<linearGradient id="SVGID_4_" gradientUnits="userSpaceOnUse" x1="307.2444" y1="578.1169" x2="340.5325" y2="578.1169" gradientTransform="matrix(1 0 0 -1 -95.5298 743.2495)">
		<stop  offset="0" style="stop-color:#FFF200"/>
		<stop  offset="1" style="stop-color:#FFFAC7"/>
	</linearGradient>
	<path fill="url(#SVGID_4_)" d="M232.889,153.342c6.487,3.696,5.36,13.043,12.114,24.773c-17.832-11.181-19.804,3.787-26.288,0.095
		c-6.801-3.878-9.168-11.565-4.764-19.291C218.269,151.357,226.012,149.626,232.889,153.342z"/>
	
		<linearGradient id="SVGID_5_" gradientUnits="userSpaceOnUse" x1="318.1252" y1="544.0554" x2="353.2649" y2="544.0554" gradientTransform="matrix(1 0 0 -1 -95.5298 743.2495)">
		<stop  offset="0" style="stop-color:#000000"/>
		<stop  offset="1" style="stop-color:#B2B4B7"/>
	</linearGradient>
	<path fill="url(#SVGID_5_)" d="M240.949,185.695c7.094,2.344,7.828,11.721,16.785,21.88c-12.348,1.443-18.648,7.646-25.741,5.308
		c-7.426-2.446-11.272-9.517-8.496-17.957C226.223,186.644,233.466,183.417,240.949,185.695z"/>
	
		<linearGradient id="SVGID_6_" gradientUnits="userSpaceOnUse" x1="495.0715" y1="547.9968" x2="528.8743" y2="547.9968" gradientTransform="matrix(1 0 0 -1 -95.5298 743.2495)">
		<stop  offset="0" style="stop-color:#C0E8FB"/>
		<stop  offset="1" style="stop-color:#00AEEF"/>
	</linearGradient>
	<path fill="url(#SVGID_6_)" d="M427.113,207.598c-6.216,4.131-14.056-1.087-27.571-0.328c6.507-10.604,5.534-19.395,11.749-23.519
		c6.518-4.329,14.451-2.974,19.369,4.426C435.469,195.439,433.534,203.133,427.113,207.598z"/>
	
		<linearGradient id="SVGID_7_" gradientUnits="userSpaceOnUse" x1="469.595" y1="222.949" x2="494.8704" y2="222.949" gradientTransform="matrix(1 0 0 -1 -95.5298 743.2495)">
		<stop  offset="0" style="stop-color:#C0E8FB"/>
		<stop  offset="1" style="stop-color:#00AEEF"/>
	</linearGradient>
	<path fill="url(#SVGID_7_)" d="M374.065,530.253c13.264,23.708,22.028,50.267,25.117,78.529c0.1-4.216,0.158-8.484,0.158-12.863
		v-164.1c-2.407,30.819-7.61,57.172-15.812,80.002C380.67,518.146,377.506,524.29,374.065,530.253z"/>
	
		<linearGradient id="SVGID_8_" gradientUnits="userSpaceOnUse" x1="358.8792" y1="363.5603" x2="494.8704" y2="363.5603" gradientTransform="matrix(1 0 0 -1 -95.5298 743.2495)">
		<stop  offset="0" style="stop-color:#FFF200"/>
		<stop  offset="0.1316" style="stop-color:#FFF216"/>
		<stop  offset="0.3929" style="stop-color:#FFF45D"/>
		<stop  offset="0.7556" style="stop-color:#FFF89E"/>
		<stop  offset="1" style="stop-color:#FFFAC7"/>
	</linearGradient>
	<path fill="url(#SVGID_8_)" d="M356.826,296.058c-24.117-30.4-56.049-53.429-92.349-66.614l-0.9-0.328v128.938
		c0,8.705-0.074,16.862-0.229,24.568v53.333c47.25,17.17,86.493,50.968,110.715,94.307c3.429-5.948,6.605-12.096,9.464-18.43
		c8.201-22.82,13.404-49.187,15.812-79.999v-39.232C393.699,357.365,379.14,324.167,356.826,296.058z"/>
	
		<linearGradient id="SVGID_9_" gradientUnits="userSpaceOnUse" x1="238.9016" y1="106.7737" x2="494.0422" y2="106.7737" gradientTransform="matrix(1 0 0 -1 -95.5298 743.2495)">
		<stop  offset="0.0108" style="stop-color:#EC008C"/>
		<stop  offset="0.255" style="stop-color:#EC0A8D"/>
		<stop  offset="0.4101" style="stop-color:#ED2590"/>
		<stop  offset="0.5405" style="stop-color:#EE3E96"/>
		<stop  offset="0.6571" style="stop-color:#EF579F"/>
		<stop  offset="0.7635" style="stop-color:#F170AA"/>
		<stop  offset="0.8065" style="stop-color:#F17BB0"/>
		<stop  offset="0.8564" style="stop-color:#F178AE"/>
		<stop  offset="0.9035" style="stop-color:#F06EAA"/>
		<stop  offset="0.9497" style="stop-color:#EF5CA1"/>
		<stop  offset="0.9949" style="stop-color:#EE3D96"/>
		<stop  offset="1" style="stop-color:#ED3895"/>
	</linearGradient>
	<path fill="url(#SVGID_9_)" d="M147.1,802.773c0.24,0.53,0.485,1.046,0.74,1.58l0.076,0.141c0.368,0.735,0.778,1.479,1.209,2.234
		c1.01,1.734,2.194,3.491,3.518,5.198c4.208,5.445,9.604,10.122,16.038,13.922l0.035,0.02c0.679,0.389,1.372,0.785,2.074,1.17h0.007
		c0.077,0.046,0.167,0.082,0.25,0.133c0.797,0.416,1.589,0.839,2.407,1.211c0.728,0.363,1.413,0.678,2.096,0.987l0.388,0.171
		c0.145,0.061,0.274,0.108,0.409,0.169c0.756,0.335,1.458,0.602,2.164,0.89l-0.049,0.694l0.246-0.627
		c0.812,0.313,1.625,0.614,2.446,0.896l0.307,0.108c0.753,0.259,1.503,0.499,2.271,0.742c0.053,0.013,0.109,0.025,0.163,0.046
		l0.397,0.119c0.799,0.229,1.6,0.461,2.41,0.675l0.535,0.134c0.392,0.097,0.787,0.192,1.179,0.303
		c0.397,0.094,0.781,0.179,1.185,0.275l1.771,0.359c0.362,0.084,0.711,0.144,1.067,0.215c0.041,0,0.089,0.013,0.13,0.026
		l0.836,0.134c0.686,0.129,1.358,0.239,2.049,0.335c0.049,0.027,0.115,0.027,0.162,0.035l1.016,0.132
		c0.703,0.094,1.405,0.194,2.123,0.268c0.246,0.02,0.493,0.047,0.744,0.083l0.705,0.059c0.576,0.062,1.159,0.106,1.749,0.145
		c0.292,0.023,0.589,0.063,0.885,0.07l0.974,0.05c0.467,0.025,0.942,0.063,1.418,0.07c0.362,0.024,0.726,0.024,1.094,0.024
		c0.023,0,0.046,0,0.07,0l0.92,0.028c0.92,0.021,1.834,0.021,2.651,0.009l1.118-0.021c0.308,0,0.609,0,0.916-0.016
		c1.151-0.032,2.313-0.095,3.479-0.165l0.013,0.239c20.342-2.561,39.392-6.862,56.933-12.891
		c48.523-20.33,87.224-57.971,108.955-105.956c10.604-29.517,16.201-64.995,17.133-108.422
		c-8.488-77.464-61.233-144.85-134.503-171.865v127.004c0,85.029-6.768,120.809-26.852,141.802
		c-7.696,8.102-17.721,14.418-30.517,19.106l0.133,0.408c-1.49,0.468-2.947,0.972-4.377,1.465l-1.423,0.516
		c-0.939,0.34-1.865,0.675-2.785,1.022c-0.516,0.194-1.02,0.383-1.532,0.59c-0.919,0.361-1.72,0.683-2.506,1.009
		c-0.564,0.229-1.129,0.455-1.689,0.699l-2.404,1.047c-0.457,0.189-0.914,0.398-1.358,0.599c0,0.014,0,0.014,0,0.014
		c-0.007,0-0.012,0-0.019,0c-0.005,0.011-0.012,0.011-0.019,0.011h-0.007c-0.006,0.014-0.009,0.014-0.017,0.014l0,0
		c-0.006,0.013-0.019,0.013-0.024,0.013c-0.06,0.023-0.127,0.062-0.193,0.094c-0.005,0-0.005,0-0.005,0
		c-0.006,0-0.012,0.013-0.018,0.013c-0.498,0.229-0.993,0.468-1.484,0.697l-0.902,0.421c-0.331,0.155-0.661,0.323-0.992,0.482
		c-0.019,0.012-0.043,0.012-0.06,0.033c-0.391,0.182-0.776,0.388-1.162,0.577c-0.006,0.014-0.014,0.014-0.022,0.014
		c-0.02,0.012-0.044,0.025-0.054,0.038c-0.054,0.021-0.11,0.061-0.164,0.082l-1.628,0.842l0,0c0,0.013-0.007,0.013-0.011,0.013
		c-0.74,0.394-1.474,0.791-2.191,1.192l-0.334,0.179c-0.277,0.143-0.548,0.301-0.819,0.456c-0.329,0.18-0.659,0.375-0.984,0.563
		c-0.013,0.013-0.024,0.024-0.043,0.024l-2.007,1.206c-0.362,0.213-0.715,0.441-1.071,0.662l-1.742,1.115
		c-0.024,0.013-0.05,0.036-0.073,0.05c-0.68,0.434-1.341,0.876-1.991,1.33c-0.011,0.013-0.022,0.013-0.034,0.029l-0.411,0.298
		c-4.045,2.822-7.701,5.854-10.863,8.99l0,0C143.811,767.015,139.344,785.667,147.1,802.773z"/>
	
		<linearGradient id="SVGID_10_" gradientUnits="userSpaceOnUse" x1="358.8792" y1="437.4285" x2="494.8704" y2="437.4285" gradientTransform="matrix(1 0 0 -1 -95.5298 743.2495)">
		<stop  offset="0" style="stop-color:#000000"/>
		<stop  offset="0.6989" style="stop-color:#737577"/>
		<stop  offset="0.7777" style="stop-color:#717275"/>
		<stop  offset="0.8396" style="stop-color:#696A6D"/>
		<stop  offset="0.8957" style="stop-color:#5B5C5E"/>
		<stop  offset="0.9481" style="stop-color:#464648"/>
		<stop  offset="0.9981" style="stop-color:#050505"/>
		<stop  offset="1" style="stop-color:#000000"/>
	</linearGradient>
	<path fill="url(#SVGID_10_)" d="M263.349,219.051v9.908c6.577,2.315,12.9,5.031,18.228,7.598
		c29.227,13.671,54.992,33.983,75.25,59.497c22.313,28.115,36.887,61.305,42.514,96.539V219.051
		C399.34,238.54,263.349,237.645,263.349,219.051z"/>
	
		<linearGradient id="SVGID_11_" gradientUnits="userSpaceOnUse" x1="363.5432" y1="518.5886" x2="489.7473" y2="518.5886" gradientTransform="matrix(1 0 0 -1 -95.5298 743.2495)">
		<stop  offset="0" style="stop-color:#FFF200"/>
		<stop  offset="1" style="stop-color:#FFFAC7"/>
	</linearGradient>
	<path fill="url(#SVGID_11_)" d="M280.807,217.704c-36.406,2.488,12.083,14.38,55.569,13.9c40.279-0.446,78.086-11.633,45.506-13.9
		C391.872,232.722,277.296,233.839,280.807,217.704z"/>
	
		<linearGradient id="SVGID_12_" gradientUnits="userSpaceOnUse" x1="379.7874" y1="521.2712" x2="473.5061" y2="521.2712" gradientTransform="matrix(1 0 0 -1 -95.5298 743.2495)">
		<stop  offset="0" style="stop-color:#C0E8FB"/>
		<stop  offset="1" style="stop-color:#00AEEF"/>
	</linearGradient>
	<path fill="url(#SVGID_12_)" d="M293.755,216.816c-27.026,1.838,8.969,10.675,41.263,10.314
		c29.909-0.33,57.995-8.639,33.798-10.314C376.232,227.966,291.146,228.795,293.755,216.816z"/>
	
		<linearGradient id="SVGID_13_" gradientUnits="userSpaceOnUse" x1="399.6731" y1="525.74" x2="453.6086" y2="525.74" gradientTransform="matrix(1 0 0 -1 -95.5298 743.2495)">
		<stop  offset="0" style="stop-color:#F9CBDF"/>
		<stop  offset="1" style="stop-color:#EC008C"/>
	</linearGradient>
	<path fill="url(#SVGID_13_)" d="M331.111,215.048c14.897,0,26.969,1.101,26.969,2.458c0,1.357-12.071,2.465-26.969,2.465
		c-14.884,0-26.967-1.107-26.967-2.465C304.144,216.148,316.227,215.048,331.111,215.048z"/>
</g>
</svg>
